<svg width="24" height="25" viewBox="0 0 24 25" fill="none" xmlns="http://www.w3.org/2000/svg">
<g clip-path="url(#clip0_2676_2966)">
<path d="M21 12.4211H18C16.897 12.4211 16 13.3181 16 14.4211C16 15.5241 15.103 16.4211 14 16.4211H10C8.897 16.4211 8 15.5241 8 14.4211C8 13.3181 7.103 12.4211 6 12.4211H3C1.346 12.4211 0 13.7671 0 15.4211V19.4211C0 22.1781 2.243 24.4211 5 24.4211H19C21.757 24.4211 24 22.1781 24 19.4211V15.4211C24 13.7671 22.654 12.4211 21 12.4211ZM22 19.4211C22 21.0751 20.654 22.4211 19 22.4211H5C3.346 22.4211 2 21.0751 2 19.4211V15.4211C2 15.1559 2.10536 14.9016 2.29289 14.714C2.48043 14.5265 2.73478 14.4211 3 14.4211L6 14.4191V14.4211C6 16.6271 7.794 18.4211 10 18.4211H14C16.206 18.4211 18 16.6271 18 14.4211H21C21.2652 14.4211 21.5196 14.5265 21.7071 14.714C21.8946 14.9016 22 15.1559 22 15.4211V19.4211ZM7.293 7.54214C7.20016 7.4493 7.12651 7.33908 7.07626 7.21777C7.02601 7.09646 7.00015 6.96644 7.00015 6.83514C7.00015 6.70384 7.02601 6.57382 7.07626 6.45252C7.12651 6.33121 7.20016 6.22099 7.293 6.12814C7.38584 6.0353 7.49607 5.96165 7.61737 5.9114C7.73868 5.86116 7.8687 5.83529 8 5.83529C8.1313 5.83529 8.26132 5.86116 8.38263 5.9114C8.50393 5.96165 8.61415 6.0353 8.707 6.12814L11 8.42114V1.42114C11 1.15593 11.1054 0.901572 11.2929 0.714036C11.4804 0.526499 11.7348 0.421143 12 0.421143C12.2652 0.421143 12.5196 0.526499 12.7071 0.714036C12.8946 0.901572 13 1.15593 13 1.42114V8.42114L15.293 6.12814C15.4805 5.94063 15.7348 5.83529 16 5.83529C16.2652 5.83529 16.5195 5.94063 16.707 6.12814C16.8945 6.31565 16.9998 6.56997 16.9998 6.83514C16.9998 7.10032 16.8945 7.35463 16.707 7.54214L13.414 10.8351C13.0413 11.208 12.5361 11.4179 12.009 11.4191L12 11.4211L11.991 11.4191C11.4639 11.4179 10.9587 11.208 10.586 10.8351L7.293 7.54214Z" fill="white"/>
</g>
<defs>
<clipPath id="clip0_2676_2966">
<rect width="24" height="24" fill="white" transform="translate(0 0.421143)"/>
</clipPath>
</defs>
</svg>
