<svg width="24" height="25" viewBox="0 0 24 25" fill="none" xmlns="http://www.w3.org/2000/svg">
<path d="M14.7337 7.85571V4.18682C14.7337 3.94356 14.8304 3.71026 15.0024 3.53825C15.1744 3.36624 15.4077 3.2696 15.651 3.2696C15.8942 3.2696 16.1275 3.36624 16.2995 3.53825C16.4715 3.71026 16.5682 3.94356 16.5682 4.18682V6.58169C17.146 6.00017 20.88 2.2469 21.423 1.70391C21.5076 1.6163 21.6089 1.54643 21.7208 1.49836C21.8327 1.45028 21.953 1.42498 22.0748 1.42392C22.1966 1.42287 22.3174 1.44607 22.4301 1.49219C22.5428 1.53831 22.6452 1.60642 22.7314 1.69254C22.8175 1.77866 22.8856 1.88107 22.9317 1.99379C22.9778 2.10651 23.001 2.22729 23 2.34908C22.9989 2.47087 22.9736 2.59123 22.9255 2.70313C22.8775 2.81504 22.8076 2.91625 22.72 3.00086C22.177 3.54385 18.4622 7.27969 17.8881 7.85571H20.2371C20.4803 7.85571 20.7136 7.95234 20.8856 8.12436C21.0577 8.29637 21.1543 8.52967 21.1543 8.77293C21.1543 9.01619 21.0577 9.24949 20.8856 9.4215C20.7136 9.59352 20.4803 9.69015 20.2371 9.69015H16.5682C16.0817 9.69015 15.6151 9.49688 15.271 9.15286C14.927 8.80883 14.7337 8.34223 14.7337 7.85571ZM22.1586 16.7885C22.6902 17.3215 22.9887 18.0436 22.9887 18.7963C22.9887 19.5491 22.6902 20.2711 22.1586 20.8041L21.3221 21.7672C13.8092 28.9564 -4.4692 10.6835 2.61083 3.14761L3.66563 2.23039C4.19912 1.71358 4.91464 1.42758 5.65738 1.43428C6.40012 1.44097 7.11036 1.73982 7.63445 2.26616C7.66288 2.29368 9.36157 4.50235 9.36157 4.50235C9.86414 5.033 10.1438 5.73636 10.1427 6.46722C10.1417 7.19808 9.86012 7.90065 9.35607 8.42989L8.29393 9.76536C8.88186 11.1935 9.74613 12.4914 10.8371 13.5846C11.9281 14.6778 13.2242 15.5447 14.6512 16.1355L15.9949 15.0669C16.5231 14.5615 17.2256 14.279 17.9567 14.278C18.6877 14.2769 19.391 14.5575 19.9206 15.0614C19.9206 15.0614 22.1302 16.761 22.1586 16.7885ZM20.8975 18.1222C20.8975 18.1222 18.7026 16.4326 18.6741 16.4051C18.4852 16.2178 18.2298 16.1126 17.9637 16.1126C17.6976 16.1126 17.4423 16.2178 17.2533 16.4051C17.2286 16.429 15.3785 17.9039 15.3785 17.9039C15.2539 18.0031 15.1055 18.0681 14.948 18.0926C14.7906 18.117 14.6295 18.1 14.4806 18.0433C12.6309 17.3551 10.9509 16.2773 9.55427 14.8829C8.15768 13.4886 7.07721 11.8102 6.38611 9.96165C6.32484 9.81072 6.30486 9.64621 6.32824 9.485C6.35161 9.3238 6.41749 9.17173 6.51911 9.04443C6.51911 9.04443 7.994 7.19714 8.01876 7.1733C8.20612 6.98433 8.31124 6.72901 8.31124 6.46291C8.31124 6.19681 8.20612 5.94148 8.01876 5.75252C7.99125 5.725 6.30172 3.52826 6.30172 3.52826C6.10993 3.35629 5.85963 3.26419 5.60211 3.27084C5.3446 3.27749 5.09938 3.38239 4.91672 3.56403L3.86192 4.48125C-1.31305 10.7028 14.5292 25.6663 19.9802 20.517L20.8167 19.553C21.014 19.3721 21.1328 19.1212 21.1478 18.854C21.1629 18.5868 21.0731 18.3242 20.8975 18.1222Z" fill="white"/>
</svg>
