<svg width="24" height="25" viewBox="0 0 24 25" fill="none" xmlns="http://www.w3.org/2000/svg">
<path d="M7.41667 6.92104H22.0833C22.3264 6.92104 22.5596 6.82446 22.7315 6.65256C22.9034 6.48065 23 6.24749 23 6.00437C23 5.76126 22.9034 5.5281 22.7315 5.35619C22.5596 5.18428 22.3264 5.08771 22.0833 5.08771H7.41667C7.17355 5.08771 6.94039 5.18428 6.76849 5.35619C6.59658 5.5281 6.5 5.76126 6.5 6.00437C6.5 6.24749 6.59658 6.48065 6.76849 6.65256C6.94039 6.82446 7.17355 6.92104 7.41667 6.92104ZM22.0833 11.5044H7.41667C7.17355 11.5044 6.94039 11.601 6.76849 11.7729C6.59658 11.9448 6.5 12.1779 6.5 12.421C6.5 12.6642 6.59658 12.8973 6.76849 13.0692C6.94039 13.2411 7.17355 13.3377 7.41667 13.3377H22.0833C22.3264 13.3377 22.5596 13.2411 22.7315 13.0692C22.9034 12.8973 23 12.6642 23 12.421C23 12.1779 22.9034 11.9448 22.7315 11.7729C22.5596 11.601 22.3264 11.5044 22.0833 11.5044ZM22.0833 17.921H7.41667C7.17355 17.921 6.94039 18.0176 6.76849 18.1895C6.59658 18.3614 6.5 18.5946 6.5 18.8377C6.5 19.0808 6.59658 19.314 6.76849 19.4859C6.94039 19.6578 7.17355 19.7544 7.41667 19.7544H22.0833C22.3264 19.7544 22.5596 19.6578 22.7315 19.4859C22.9034 19.314 23 19.0808 23 18.8377C23 18.5946 22.9034 18.3614 22.7315 18.1895C22.5596 18.0176 22.3264 17.921 22.0833 17.921Z" fill="white"/>
<path d="M2.83333 7.83772C3.84586 7.83772 4.66667 7.01691 4.66667 6.00438C4.66667 4.99186 3.84586 4.17105 2.83333 4.17105C1.82081 4.17105 1 4.99186 1 6.00438C1 7.01691 1.82081 7.83772 2.83333 7.83772Z" fill="white"/>
<path d="M2.83333 14.2544C3.84586 14.2544 4.66667 13.4336 4.66667 12.421C4.66667 11.4085 3.84586 10.5877 2.83333 10.5877C1.82081 10.5877 1 11.4085 1 12.421C1 13.4336 1.82081 14.2544 2.83333 14.2544Z" fill="white"/>
<path d="M2.83333 20.6711C3.84586 20.6711 4.66667 19.8502 4.66667 18.8377C4.66667 17.8252 3.84586 17.0044 2.83333 17.0044C1.82081 17.0044 1 17.8252 1 18.8377C1 19.8502 1.82081 20.6711 2.83333 20.6711Z" fill="white"/>
</svg>
