<svg width="24" height="25" viewBox="0 0 24 25" fill="none" xmlns="http://www.w3.org/2000/svg">
<path d="M23 3.26028V6.93309C23 7.17661 22.9033 7.41016 22.7311 7.58235C22.5589 7.75455 22.3253 7.85129 22.0818 7.85129C21.8383 7.85129 21.6047 7.75455 21.4325 7.58235C21.2603 7.41016 21.1636 7.17661 21.1636 6.93309V4.57974L16.2971 9.4205C16.1235 9.58733 15.8913 9.67928 15.6505 9.67653C15.4097 9.67379 15.1796 9.57657 15.0099 9.40582C14.8401 9.23507 14.7442 9.00446 14.7428 8.76366C14.7414 8.52287 14.8347 8.29117 15.0025 8.11848L19.8873 3.26028H17.4908C17.2473 3.26028 17.0137 3.16354 16.8415 2.99134C16.6693 2.81915 16.5726 2.5856 16.5726 2.34208C16.5726 2.09855 16.6693 1.86501 16.8415 1.69281C17.0137 1.52061 17.2473 1.42387 17.4908 1.42387H21.1636C21.6506 1.42387 22.1177 1.61735 22.4621 1.96175C22.8065 2.30614 23 2.77323 23 3.26028ZM22.169 16.7937C22.7011 17.3272 22.9999 18.05 22.9999 18.8036C22.9999 19.5572 22.7011 20.28 22.169 20.8135L21.3316 21.7777C13.8106 28.9745 -4.48821 10.6812 2.60031 3.13816L3.65532 2.21996C4.1898 1.7028 4.90623 1.41659 5.64992 1.42311C6.39361 1.42964 7.1049 1.72839 7.63022 2.25485C7.65777 2.28331 9.35919 4.49434 9.35919 4.49434C9.8639 5.02456 10.1449 5.72883 10.1439 6.46086C10.1429 7.19288 9.85988 7.89637 9.35368 8.42516L8.28949 9.76298C8.87792 11.1927 9.74306 12.4921 10.8352 13.5865C11.9274 14.6808 13.225 15.5486 14.6535 16.1399L15.9987 15.0702C16.5275 14.5643 17.2308 14.2814 17.9626 14.2804C18.6944 14.2794 19.3984 14.5602 19.9286 15.0647C19.9286 15.0647 22.1406 16.7661 22.169 16.7937ZM20.9065 18.1287C20.9065 18.1287 18.7092 16.4374 18.6808 16.4098C18.4916 16.2223 18.236 16.1171 17.9696 16.1171C17.7032 16.1171 17.4476 16.2223 17.2585 16.4098C17.2337 16.4337 15.3817 17.9102 15.3817 17.9102C15.2569 18.0095 15.1083 18.0746 14.9507 18.0991C14.7931 18.1236 14.6318 18.1066 14.4828 18.0498C12.6309 17.3611 10.949 16.2821 9.55096 14.8861C8.15297 13.49 7.0717 11.8094 6.38055 9.95856C6.32008 9.80809 6.30055 9.64428 6.32394 9.48381C6.34732 9.32333 6.41279 9.17191 6.51369 9.04495C6.51369 9.04495 7.98924 7.19294 8.01403 7.16815C8.20159 6.97898 8.30682 6.72338 8.30682 6.457C8.30682 6.19061 8.20159 5.93501 8.01403 5.74585C7.98648 5.71831 6.29515 3.52013 6.29515 3.52013C6.10327 3.34785 5.85276 3.25549 5.59498 3.26198C5.33719 3.26847 5.09164 3.37331 4.90867 3.55502L3.85365 4.47322C-1.32868 10.7005 14.5314 25.6819 19.9883 20.5252L20.8257 19.5611C21.0231 19.3799 21.142 19.1289 21.1571 18.8613C21.1722 18.5938 21.0823 18.3309 20.9065 18.1287Z" fill="white"/>
</svg>
