<svg width="24" height="25" viewBox="0 0 24 25" fill="none" xmlns="http://www.w3.org/2000/svg">
<g clip-path="url(#clip0_2496_1198)">
<path d="M12 8.42105C11.2089 8.42105 10.4355 8.65565 9.77772 9.09517C9.11993 9.5347 8.60723 10.1594 8.30448 10.8903C8.00173 11.6212 7.92252 12.4255 8.07686 13.2014C8.2312 13.9773 8.61216 14.6901 9.17157 15.2495C9.73098 15.8089 10.4437 16.1899 11.2196 16.3442C11.9956 16.4985 12.7998 16.4193 13.5307 16.1166C14.2616 15.8138 14.8864 15.3011 15.3259 14.6433C15.7654 13.9855 16 13.2122 16 12.4211C16 11.3602 15.5786 10.3428 14.8284 9.59262C14.0783 8.84248 13.0609 8.42105 12 8.42105ZM12 14.4211C11.6044 14.4211 11.2178 14.3038 10.8889 14.084C10.56 13.8642 10.3036 13.5519 10.1522 13.1864C10.0009 12.821 9.96126 12.4188 10.0384 12.0309C10.1156 11.6429 10.3061 11.2865 10.5858 11.0068C10.8655 10.7271 11.2219 10.5367 11.6098 10.4595C11.9978 10.3823 12.3999 10.4219 12.7654 10.5733C13.1308 10.7247 13.4432 10.981 13.6629 11.3099C13.8827 11.6388 14 12.0255 14 12.4211C14 12.9515 13.7893 13.4602 13.4142 13.8353C13.0391 14.2103 12.5304 14.4211 12 14.4211Z" fill="white"/>
<path d="M21.294 14.3211L20.85 14.0651C21.0499 12.9775 21.0499 11.8626 20.85 10.7751L21.294 10.5191C21.6354 10.3221 21.9347 10.0598 22.1748 9.74711C22.4149 9.43446 22.591 9.07759 22.6931 8.69687C22.7953 8.31615 22.8214 7.91904 22.7701 7.52821C22.7188 7.13738 22.591 6.76049 22.394 6.41905C22.197 6.07761 21.9347 5.77832 21.6221 5.53825C21.3094 5.29819 20.9525 5.12206 20.5718 5.01991C20.1911 4.91777 19.794 4.89161 19.4032 4.94294C19.0123 4.99427 18.6354 5.12207 18.294 5.31905L17.849 5.57605C17.0085 4.85797 16.0427 4.3013 15 3.93405V3.42105C15 2.6254 14.6839 1.86234 14.1213 1.29973C13.5587 0.737122 12.7957 0.421051 12 0.421051C11.2044 0.421051 10.4413 0.737122 9.87868 1.29973C9.31607 1.86234 9 2.6254 9 3.42105V3.93405C7.95739 4.30262 6.99185 4.86065 6.152 5.58005L5.705 5.32105C5.01544 4.92323 4.19608 4.81562 3.42718 5.02191C2.65828 5.2282 2.00283 5.73149 1.605 6.42105C1.20718 7.11061 1.09957 7.92997 1.30586 8.69887C1.51215 9.46777 2.01544 10.1232 2.705 10.5211L3.149 10.7771C2.94911 11.8646 2.94911 12.9795 3.149 14.0671L2.705 14.3231C2.01544 14.7209 1.51215 15.3763 1.30586 16.1452C1.09957 16.9141 1.20718 17.7335 1.605 18.4231C2.00283 19.1126 2.65828 19.6159 3.42718 19.8222C4.19608 20.0285 5.01544 19.9209 5.705 19.5231L6.15 19.2661C6.99077 19.9842 7.95698 20.5409 9 20.9081V21.4211C9 22.2167 9.31607 22.9798 9.87868 23.5424C10.4413 24.105 11.2044 24.4211 12 24.4211C12.7957 24.4211 13.5587 24.105 14.1213 23.5424C14.6839 22.9798 15 22.2167 15 21.4211V20.9081C16.0426 20.5395 17.0082 19.9815 17.848 19.2621L18.295 19.5201C18.9846 19.9179 19.8039 20.0255 20.5728 19.8192C21.3417 19.6129 21.9972 19.1096 22.395 18.4201C22.7928 17.7305 22.9004 16.9111 22.6941 16.1422C22.4879 15.3733 21.9846 14.7179 21.295 14.3201L21.294 14.3211ZM18.746 10.5451C19.0846 11.7721 19.0846 13.068 18.746 14.2951C18.6869 14.5086 18.7004 14.7358 18.7843 14.9409C18.8683 15.1459 19.0181 15.3173 19.21 15.4281L20.294 16.0541C20.5238 16.1867 20.6915 16.4051 20.7603 16.6614C20.829 16.9177 20.7931 17.1907 20.6605 17.4206C20.5279 17.6504 20.3094 17.8181 20.0532 17.8868C19.7969 17.9555 19.5238 17.9197 19.294 17.7871L18.208 17.1591C18.0159 17.0478 17.7922 17.0036 17.5722 17.0335C17.3523 17.0634 17.1485 17.1656 16.993 17.3241C16.1029 18.2327 14.9816 18.881 13.75 19.1991C13.535 19.2543 13.3446 19.3795 13.2086 19.555C13.0726 19.7304 12.9989 19.9461 12.999 20.1681V21.4211C12.999 21.6863 12.8936 21.9406 12.7061 22.1282C12.5186 22.3157 12.2642 22.4211 11.999 22.4211C11.7338 22.4211 11.4794 22.3157 11.2919 22.1282C11.1044 21.9406 10.999 21.6863 10.999 21.4211V20.1691C10.9991 19.9471 10.9254 19.7314 10.7894 19.556C10.6534 19.3805 10.463 19.2553 10.248 19.2001C9.01635 18.8807 7.89533 18.231 7.006 17.3211C6.85053 17.1626 6.64674 17.0604 6.42676 17.0305C6.20678 17.0006 5.98311 17.0448 5.791 17.1561L4.707 17.7831C4.59323 17.8497 4.46739 17.8933 4.33673 17.9111C4.20606 17.929 4.07315 17.9209 3.94565 17.8871C3.81816 17.8534 3.69858 17.7948 3.59382 17.7147C3.48906 17.6346 3.40118 17.5346 3.33524 17.4204C3.2693 17.3062 3.2266 17.18 3.2096 17.0493C3.1926 16.9185 3.20164 16.7856 3.23619 16.6584C3.27074 16.5311 3.33013 16.4119 3.41093 16.3077C3.49174 16.2034 3.59236 16.1162 3.707 16.0511L4.791 15.4251C4.98295 15.3143 5.13268 15.1429 5.21666 14.9379C5.30065 14.7328 5.31413 14.5056 5.255 14.2921C4.91636 13.065 4.91636 11.7691 5.255 10.5421C5.31307 10.3289 5.29894 10.1026 5.21482 9.89834C5.13069 9.6941 4.98132 9.52346 4.79 9.41305L3.706 8.78705C3.47619 8.65444 3.30847 8.43597 3.23974 8.17971C3.17101 7.92344 3.20689 7.65036 3.3395 7.42055C3.47211 7.19074 3.69058 7.02302 3.94685 6.95429C4.20311 6.88556 4.47619 6.92144 4.706 7.05405L5.792 7.68205C5.98358 7.79356 6.20678 7.83826 6.42653 7.80912C6.64628 7.77998 6.85011 7.67865 7.006 7.52105C7.89609 6.61239 9.01743 5.96407 10.249 5.64605C10.4646 5.59061 10.6556 5.4648 10.7916 5.28855C10.9277 5.1123 11.001 4.89569 11 4.67305V3.42105C11 3.15583 11.1054 2.90148 11.2929 2.71394C11.4804 2.52641 11.7348 2.42105 12 2.42105C12.2652 2.42105 12.5196 2.52641 12.7071 2.71394C12.8946 2.90148 13 3.15583 13 3.42105V4.67305C12.9999 4.89501 13.0736 5.1107 13.2096 5.28613C13.3456 5.46157 13.536 5.58678 13.751 5.64205C14.983 5.9612 16.1044 6.61093 16.994 7.52105C17.1495 7.67952 17.3533 7.78174 17.5732 7.81162C17.7932 7.84149 18.0169 7.79732 18.209 7.68605L19.293 7.05905C19.4068 6.99235 19.5326 6.94882 19.6633 6.93095C19.7939 6.91309 19.9268 6.92124 20.0543 6.95495C20.1818 6.98866 20.3014 7.04726 20.4062 7.12736C20.5109 7.20747 20.5988 7.30751 20.6648 7.42172C20.7307 7.53593 20.7734 7.66206 20.7904 7.79284C20.8074 7.92362 20.7984 8.05647 20.7638 8.18374C20.7293 8.31102 20.6699 8.4302 20.5891 8.53442C20.5083 8.63865 20.4076 8.72587 20.293 8.79105L19.209 9.41705C19.018 9.52776 18.8691 9.69853 18.7853 9.90275C18.7016 10.107 18.6878 10.3332 18.746 10.5461V10.5451Z" fill="white"/>
</g>
<defs>
<clipPath id="clip0_2496_1198">
<rect width="24" height="24" fill="white" transform="translate(0 0.421051)"/>
</clipPath>
</defs>
</svg>
