<svg width="31" height="30" viewBox="0 0 31 30" fill="none" xmlns="http://www.w3.org/2000/svg">
<rect x="0.599976" width="30" height="30" rx="6.92308" fill="#E4F2FD"/>
<path d="M16.3237 7.0668C16.3237 6.8756 16.3997 6.69223 16.5349 6.55703C16.6701 6.42183 16.8534 6.34588 17.0446 6.34588C18.956 6.34798 20.7884 7.10819 22.14 8.45972C23.4915 9.81125 24.2517 11.6437 24.2538 13.5551C24.2538 13.7463 24.1779 13.9296 24.0427 14.0648C23.9075 14.2 23.7241 14.276 23.5329 14.276C23.3417 14.276 23.1583 14.2 23.0231 14.0648C22.8879 13.9296 22.812 13.7463 22.812 13.5551C22.8103 12.026 22.2021 10.5601 21.1209 9.47883C20.0396 8.39762 18.5737 7.78943 17.0446 7.78772C16.8534 7.78772 16.6701 7.71176 16.5349 7.57656C16.3997 7.44137 16.3237 7.258 16.3237 7.0668ZM17.0446 10.6714C17.8094 10.6714 18.5429 10.9752 19.0837 11.516C19.6245 12.0568 19.9283 12.7903 19.9283 13.5551C19.9283 13.7463 20.0043 13.9296 20.1395 14.0648C20.2747 14.2 20.458 14.276 20.6492 14.276C20.8404 14.276 21.0238 14.2 21.159 14.0648C21.2942 13.9296 21.3701 13.7463 21.3701 13.5551C21.369 12.4082 20.9129 11.3087 20.102 10.4977C19.291 9.68679 18.1915 9.2307 17.0446 9.22956C16.8534 9.22956 16.6701 9.30551 16.5349 9.44071C16.3997 9.57591 16.3237 9.75928 16.3237 9.95048C16.3237 10.1417 16.3997 10.325 16.5349 10.4602C16.6701 10.5954 16.8534 10.6714 17.0446 10.6714ZM23.5999 18.4134C24.0177 18.8323 24.2523 19.3998 24.2523 19.9914C24.2523 20.5831 24.0177 21.1506 23.5999 21.5695L22.9439 22.3258C17.0396 27.9785 2.67165 13.6142 8.23715 7.69111L9.06621 6.97019C9.48561 6.56408 10.048 6.33942 10.6318 6.34482C11.2156 6.35022 11.7738 6.58524 12.1856 6.99903C12.208 7.02138 13.5438 8.75663 13.5438 8.75663C13.9402 9.17306 14.1609 9.72622 14.1599 10.3011C14.159 10.876 13.9365 11.4285 13.5388 11.8436L12.704 12.8933C13.166 14.0158 13.8452 15.036 14.7027 15.8952C15.5602 16.7545 16.579 17.4358 17.7007 17.9001L18.7568 17.0602C19.172 16.6628 19.7243 16.4406 20.2991 16.4397C20.8738 16.4389 21.4268 16.6596 21.8431 17.0559C21.8431 17.0559 23.5776 18.391 23.5999 18.4134ZM22.608 19.4616C22.608 19.4616 20.8828 18.1344 20.8604 18.112C20.7119 17.9647 20.5112 17.8821 20.3021 17.8821C20.0929 17.8821 19.8923 17.9647 19.7437 18.112C19.7243 18.1322 18.2702 19.2907 18.2702 19.2907C18.1722 19.3687 18.0556 19.4198 17.9318 19.439C17.8081 19.4583 17.6814 19.4449 17.5644 19.4003C16.1114 18.8593 14.7916 18.0123 13.6944 16.9168C12.5972 15.8212 11.7483 14.5027 11.2052 13.0504C11.157 12.9318 11.1413 12.8025 11.1597 12.6758C11.1781 12.5491 11.2298 12.4296 11.3097 12.3295C11.3097 12.3295 12.4682 10.8747 12.4877 10.856C12.635 10.7074 12.7176 10.5068 12.7176 10.2976C12.7176 10.0884 12.635 9.88777 12.4877 9.73925C12.4653 9.71762 11.1381 7.99102 11.1381 7.99102C10.9874 7.85585 10.7906 7.78346 10.5882 7.78869C10.3858 7.79392 10.1931 7.87636 10.0495 8.01913L9.22048 8.74005C5.15305 13.6308 17.6041 25.3911 21.8899 21.341L22.5467 20.584C22.7006 20.4415 22.793 20.2447 22.8045 20.0352C22.8159 19.8257 22.7454 19.62 22.608 19.4616Z" fill="#3C6BD3"/>
</svg>
