<svg width="31" height="30" viewBox="0 0 31 30" fill="none" xmlns="http://www.w3.org/2000/svg">
<rect x="0.800049" width="30" height="30" rx="6.92308" fill="#E4F2FD"/>
<path d="M15.8 6.34619C14.0885 6.34619 12.4153 6.85373 10.9922 7.80463C9.56909 8.75552 8.45991 10.1071 7.80492 11.6884C7.14993 13.2696 6.97855 15.0096 7.31246 16.6883C7.64637 18.367 8.47057 19.909 9.68083 21.1192C10.8911 22.3295 12.4331 23.1537 14.1117 23.4876C15.7904 23.8215 17.5304 23.6501 19.1117 22.9951C20.693 22.3401 22.0445 21.231 22.9954 19.8078C23.9463 18.3847 24.4539 16.7116 24.4539 15C24.4514 12.7057 23.5388 10.506 21.9165 8.88358C20.2941 7.26121 18.0944 6.34867 15.8 6.34619ZM15.8 22.2116C14.3737 22.2116 12.9794 21.7886 11.7935 20.9962C10.6076 20.2038 9.68326 19.0775 9.13744 17.7598C8.59161 16.442 8.4488 14.992 8.72706 13.5931C9.00532 12.1942 9.69215 10.9093 10.7007 9.90071C11.7092 8.89216 12.9942 8.20532 14.3931 7.92707C15.792 7.64881 17.242 7.79162 18.5598 8.33744C19.8775 8.88327 21.0038 9.80759 21.7962 10.9935C22.5886 12.1794 23.0116 13.5737 23.0116 15C23.0095 16.912 22.249 18.7451 20.897 20.097C19.5451 21.449 17.712 22.2095 15.8 22.2116Z" fill="#3C6BD3"/>
<path d="M15.8 10.6731C15.6087 10.6731 15.4253 10.7491 15.29 10.8843C15.1548 11.0196 15.0788 11.203 15.0788 11.3942V14.5132L12.6478 16.0363C12.4852 16.1379 12.3697 16.2999 12.3265 16.4866C12.2834 16.6734 12.3162 16.8697 12.4178 17.0322C12.5193 17.1948 12.6813 17.3104 12.8681 17.3535C13.0548 17.3967 13.2511 17.3638 13.4137 17.2623L16.1829 15.5315C16.2875 15.466 16.3736 15.3746 16.4328 15.2663C16.492 15.1579 16.5224 15.0362 16.5211 14.9128V11.3942C16.5211 11.203 16.4452 11.0196 16.3099 10.8843C16.1747 10.7491 15.9912 10.6731 15.8 10.6731Z" fill="#3C6BD3"/>
</svg>
