<svg width="31" height="30" viewBox="0 0 31 30" fill="none" xmlns="http://www.w3.org/2000/svg">
<rect x="0.200012" width="30" height="30" rx="6.92308" fill="#E4F2FD"/>
<path d="M8.70952 11.4679V8.58331C8.70952 8.20078 8.86147 7.83392 9.13196 7.56344C9.40245 7.29295 9.76931 7.14099 10.1518 7.14099H13.0365C13.2277 7.14099 13.4112 7.21697 13.5464 7.35221C13.6816 7.48746 13.7576 7.67089 13.7576 7.86215C13.7576 8.05341 13.6816 8.23684 13.5464 8.37209C13.4112 8.50733 13.2277 8.58331 13.0365 8.58331H11.1896L15.4487 12.8569C15.4636 12.8718 15.4812 12.8837 15.5006 12.8917C15.5201 12.8997 15.5409 12.9039 15.562 12.9038C15.5828 12.9039 15.6035 12.8999 15.6229 12.892C15.6422 12.8841 15.6597 12.8724 15.6745 12.8576L20.6389 7.89316C20.7749 7.76179 20.9571 7.68911 21.1462 7.69075C21.3353 7.69239 21.5161 7.76824 21.6498 7.90194C21.7836 8.03565 21.8594 8.21653 21.861 8.40561C21.8627 8.5947 21.79 8.77687 21.6586 8.91288L16.6942 13.8773C16.546 14.0266 16.3695 14.145 16.1752 14.2254C15.9808 14.3059 15.7723 14.3469 15.562 14.3461C15.3512 14.3466 15.1425 14.3052 14.9479 14.2244C14.7533 14.1435 14.5767 14.0248 14.4283 13.8752L10.1518 9.585V11.4679C10.1518 11.6592 10.0759 11.8426 9.94061 11.9779C9.80537 12.1131 9.62194 12.1891 9.43067 12.1891C9.23941 12.1891 9.05598 12.1131 8.92074 11.9779C8.7855 11.8426 8.70952 11.6592 8.70952 11.4679ZM23.8538 20.9202L23.7925 21.8317C23.782 22.3434 23.5708 22.8305 23.2046 23.1881C22.8384 23.5457 22.3464 23.7451 21.8346 23.7435C21.8029 23.7435 20.0158 23.5113 20.0158 23.5113C19.513 23.4972 19.0347 23.291 18.6793 22.9349C18.3239 22.5789 18.1186 22.1002 18.1055 21.5973L17.9937 20.6656C17.1024 20.3191 16.1562 20.1349 15.1999 20.1218C14.2461 20.1266 13.3015 20.3086 12.4141 20.6584L12.3009 21.5959C12.2881 22.0996 12.0824 22.5792 11.7262 22.9356C11.3701 23.2921 10.8906 23.4981 10.3869 23.5113C10.3869 23.5113 8.5999 23.7435 8.56817 23.7435C8.04779 23.7429 7.54891 23.5359 7.18101 23.1679C6.81312 22.7998 6.60628 22.3009 6.6059 21.7805L6.54604 20.9699C6.54164 20.4641 6.63867 19.9625 6.8314 19.4948C7.02414 19.0271 7.30866 18.6027 7.66816 18.2468C10.9069 15.0103 19.4952 15.011 22.731 18.2468C23.0857 18.596 23.3676 19.0121 23.5604 19.471C23.7531 19.9299 23.8529 20.4224 23.8538 20.9202ZM22.4115 20.8697C22.3964 20.2646 22.1442 19.6896 21.7091 19.2687C18.8375 16.3949 11.1607 16.7959 8.68716 19.2687C8.46736 19.4839 8.29242 19.7405 8.17247 20.0237C8.05252 20.3069 7.98994 20.6111 7.98836 20.9187L8.04677 21.7315C8.03825 21.8705 8.08388 22.0074 8.1741 22.1134C8.26431 22.2195 8.39211 22.2866 8.53067 22.3005C8.53067 22.3005 10.3033 22.0697 10.3336 22.0697C10.4715 22.0693 10.6038 22.0143 10.7013 21.9168C10.7989 21.8192 10.8539 21.687 10.8542 21.549C10.8542 21.5202 11.0266 20.0706 11.0266 20.0706C11.0414 19.9469 11.0881 19.8291 11.162 19.7287C11.236 19.6284 11.3347 19.5489 11.4485 19.498C12.6131 18.9655 13.8775 18.6865 15.1581 18.6795H15.2035C16.4906 18.6983 17.7608 18.9749 18.9391 19.493C19.0556 19.5427 19.1568 19.6222 19.2328 19.7235C19.3087 19.8248 19.3567 19.9442 19.3718 20.0699C19.3718 20.0699 19.5442 21.5194 19.5442 21.5483C19.5446 21.6863 19.5996 21.8185 19.6971 21.916C19.7947 22.0136 19.9269 22.0686 20.0649 22.069C20.0966 22.069 21.8678 22.2997 21.8678 22.2997C21.9988 22.2901 22.1213 22.2313 22.2107 22.1351C22.3002 22.039 22.35 21.9126 22.3502 21.7812L22.4115 20.8697Z" fill="#3C6BD3"/>
</svg>
