<svg width="30" height="30" viewBox="0 0 30 30" fill="none" xmlns="http://www.w3.org/2000/svg">
<rect width="30" height="30" rx="6.92308" fill="#E4F2FD"/>
<path d="M21.2428 17.0594C20.8264 16.6625 20.2729 16.4415 19.6977 16.4425C19.1224 16.4434 18.5697 16.6662 18.1546 17.0644L17.0987 17.9047C14.7922 16.926 13.1508 15.2809 12.0992 12.8944L12.9351 11.8443C13.3327 11.4289 13.555 10.8763 13.5558 10.3014C13.5566 9.72638 13.3359 9.17319 12.9394 8.75672C12.9394 8.75672 11.6037 7.02075 11.5814 6.99839C10.7116 6.12716 9.29368 6.12788 8.46067 6.9645L7.63199 7.68788C6.80259 8.51728 6.34534 9.63733 6.34534 10.8439C6.34534 16.3512 13.6484 23.6542 19.1556 23.6542C19.7485 23.6581 20.336 23.543 20.8837 23.316C21.4313 23.0889 21.9279 22.7544 22.3441 22.3322L23.0019 21.5749C23.4194 21.1559 23.6538 20.5885 23.6538 19.9969C23.6538 19.4054 23.4194 18.8379 23.0019 18.4189C22.9802 18.3965 21.2435 17.0608 21.2435 17.0608L21.2428 17.0594ZM21.9475 20.5905L21.2897 21.3478C20.7336 21.9045 19.9764 22.2111 19.1556 22.2111C14.8362 22.2111 7.78777 15.8607 7.78777 10.8432C7.78777 10.0225 8.09429 9.26446 8.61429 8.7423L9.44369 8.01747C9.58703 7.87425 9.77995 7.79161 9.98252 7.78665C10.1851 7.78168 10.3818 7.85477 10.532 7.99079C10.532 7.99079 11.8605 9.71667 11.8821 9.7383C11.9555 9.81164 12.0137 9.89872 12.0534 9.99456C12.0932 10.0904 12.1136 10.1931 12.1136 10.2969C12.1136 10.4006 12.0932 10.5034 12.0534 10.5992C12.0137 10.6951 11.9555 10.7821 11.8821 10.8555C11.8627 10.8749 10.7029 12.3296 10.7029 12.3296C10.6236 12.4293 10.572 12.5482 10.5535 12.6742C10.535 12.8003 10.5502 12.929 10.5976 13.0473C11.8331 16.1254 13.9737 18.2631 16.9595 19.4026C17.1961 19.4935 17.4658 19.4517 17.6656 19.2937C17.6656 19.2937 19.121 18.134 19.1397 18.1145C19.2902 17.9708 19.4903 17.8905 19.6983 17.8905C19.9064 17.8905 20.1065 17.9708 20.2569 18.1145C20.2786 18.1369 22.0059 19.4654 22.0059 19.4654C22.2857 19.7755 22.2756 20.2566 21.9446 20.5905H21.9475ZM23.0206 6.97892C22.8203 6.77722 22.582 6.61732 22.3194 6.50849C22.0568 6.39966 21.7752 6.34408 21.4909 6.34497H18.606C18.0324 6.34611 17.4827 6.57454 17.0771 6.98021C16.6716 7.38588 16.4433 7.93574 16.4424 8.50935V13.2845C16.4446 13.656 16.6494 13.9935 16.979 14.1651C17.1196 14.2387 17.2718 14.2755 17.4269 14.2755C17.6353 14.2755 17.8495 14.2077 18.0471 14.0692L19.5811 12.8359H21.4902C22.6831 12.8359 23.6539 11.8652 23.6539 10.6723V8.50862C23.6539 7.93021 23.4281 7.38713 23.0199 6.9782L23.0206 6.97892ZM22.2121 10.6723C22.2121 11.0697 21.889 11.3935 21.4909 11.3935H19.3273C19.1628 11.3935 19.0032 11.4497 18.8751 11.5529L17.8856 12.3498V8.51007C17.8856 8.31891 17.9614 8.13558 18.0965 8.00034C18.2316 7.86511 18.4149 7.78904 18.606 7.78885H21.4909C21.5857 7.78866 21.6796 7.80718 21.7671 7.84336C21.8547 7.87954 21.9343 7.93266 22.0013 7.99966C22.0683 8.06667 22.1214 8.14626 22.1576 8.23384C22.1938 8.32143 22.2123 8.4153 22.2121 8.51007V10.6737V10.6723Z" fill="#3C6BD3"/>
</svg>
