<svg width="31" height="30" viewBox="0 0 31 30" fill="none" xmlns="http://www.w3.org/2000/svg">
<rect x="0.400024" width="30" height="30" rx="6.92308" fill="#E4F2FD"/>
<path d="M23.1885 14.9999C23.1885 17.8628 20.8591 20.1922 17.9962 20.1922H9.55869L11.0469 21.6805C11.1686 21.8022 11.237 21.9672 11.237 22.1393C11.237 22.3114 11.1686 22.4765 11.0469 22.5982C10.9252 22.7199 10.7602 22.7883 10.5881 22.7883C10.416 22.7883 10.2509 22.7199 10.1292 22.5982L7.99191 20.4609C7.74872 20.2174 7.61212 19.8873 7.61212 19.5432C7.61212 19.199 7.74872 18.869 7.99191 18.6254L10.1292 16.4882C10.1895 16.4279 10.261 16.3801 10.3397 16.3475C10.4185 16.3149 10.5028 16.2981 10.5881 16.2981C10.6733 16.2981 10.7577 16.3149 10.8364 16.3475C10.9151 16.3801 10.9867 16.4279 11.0469 16.4882C11.1072 16.5484 11.155 16.62 11.1876 16.6987C11.2202 16.7774 11.237 16.8618 11.237 16.947C11.237 17.0322 11.2202 17.1166 11.1876 17.1954C11.155 17.2741 11.1072 17.3456 11.0469 17.4059L9.55869 18.8941H17.9962C20.1439 18.8941 21.8904 17.1476 21.8904 14.9999C21.8904 14.8278 21.9588 14.6627 22.0805 14.541C22.2022 14.4193 22.3673 14.3509 22.5395 14.3509C22.7116 14.3509 22.8767 14.4193 22.9984 14.541C23.1201 14.6627 23.1885 14.8278 23.1885 14.9999ZM8.26061 15.649C8.43275 15.649 8.59783 15.5806 8.71955 15.4589C8.84127 15.3371 8.90965 15.172 8.90965 14.9999C8.90965 12.8522 10.6562 11.1057 12.8039 11.1057H21.2414L19.7531 12.5939C19.6929 12.6542 19.6451 12.7257 19.6125 12.8045C19.5799 12.8832 19.5631 12.9676 19.5631 13.0528C19.5631 13.138 19.5799 13.2224 19.6125 13.3011C19.6451 13.3799 19.6929 13.4514 19.7531 13.5117C19.8134 13.5719 19.8849 13.6197 19.9637 13.6523C20.0424 13.685 20.1268 13.7017 20.212 13.7017C20.2972 13.7017 20.3816 13.685 20.4603 13.6523C20.5391 13.6197 20.6106 13.5719 20.6709 13.5117L22.8082 11.3744C23.3144 10.8688 23.3144 10.0445 22.8082 9.5389L20.6709 7.40162C20.6106 7.34136 20.5391 7.29356 20.4603 7.26095C20.3816 7.22833 20.2972 7.21155 20.212 7.21155C20.1268 7.21155 20.0424 7.22833 19.9637 7.26095C19.8849 7.29356 19.8134 7.34136 19.7531 7.40162C19.6929 7.46188 19.6451 7.53342 19.6125 7.61215C19.5799 7.69088 19.5631 7.77527 19.5631 7.86049C19.5631 7.94571 19.5799 8.03009 19.6125 8.10883C19.6451 8.18756 19.6929 8.2591 19.7531 8.31936L21.2414 9.8076H12.8039C9.94097 9.8076 7.61157 12.137 7.61157 14.9999C7.61157 15.172 7.67995 15.3371 7.80167 15.4589C7.92339 15.5806 8.08848 15.649 8.26061 15.649Z" fill="#3C6BD3"/>
</svg>
