<svg width="20" height="21" viewBox="0 0 20 21" fill="none" xmlns="http://www.w3.org/2000/svg">
<path d="M16 5.16667H13.9334C13.7786 4.41428 13.3693 3.73823 12.7742 3.25248C12.1792 2.76673 11.4348 2.50097 10.6667 2.5L9.33337 2.5C8.56524 2.50097 7.82092 2.76673 7.22587 3.25248C6.63083 3.73823 6.22144 4.41428 6.06671 5.16667H4.00004C3.82323 5.16667 3.65366 5.23691 3.52864 5.36193C3.40361 5.48695 3.33337 5.65652 3.33337 5.83333C3.33337 6.01014 3.40361 6.17971 3.52864 6.30474C3.65366 6.42976 3.82323 6.5 4.00004 6.5H4.66671V15.1667C4.66777 16.0504 5.0193 16.8976 5.64419 17.5225C6.26908 18.1474 7.11631 18.4989 8.00004 18.5H12C12.8838 18.4989 13.731 18.1474 14.3559 17.5225C14.9808 16.8976 15.3323 16.0504 15.3334 15.1667V6.5H16C16.1769 6.5 16.3464 6.42976 16.4714 6.30474C16.5965 6.17971 16.6667 6.01014 16.6667 5.83333C16.6667 5.65652 16.5965 5.48695 16.4714 5.36193C16.3464 5.23691 16.1769 5.16667 16 5.16667ZM9.33337 3.83333H10.6667C11.0802 3.83384 11.4835 3.96225 11.8211 4.20096C12.1588 4.43967 12.4143 4.77699 12.5527 5.16667H7.44737C7.58576 4.77699 7.84131 4.43967 8.17897 4.20096C8.51662 3.96225 8.91986 3.83384 9.33337 3.83333ZM14 15.1667C14 15.6971 13.7893 16.2058 13.4143 16.5809C13.0392 16.956 12.5305 17.1667 12 17.1667H8.00004C7.46961 17.1667 6.9609 16.956 6.58583 16.5809C6.21075 16.2058 6.00004 15.6971 6.00004 15.1667V6.5H14V15.1667Z" fill="#374151"/>
<path d="M8.66679 14.4998C8.8436 14.4998 9.01317 14.4296 9.13819 14.3046C9.26322 14.1796 9.33346 14.01 9.33346 13.8332V9.83317C9.33346 9.65636 9.26322 9.48679 9.13819 9.36177C9.01317 9.23674 8.8436 9.1665 8.66679 9.1665C8.48998 9.1665 8.32041 9.23674 8.19538 9.36177C8.07036 9.48679 8.00012 9.65636 8.00012 9.83317V13.8332C8.00012 14.01 8.07036 14.1796 8.19538 14.3046C8.32041 14.4296 8.48998 14.4998 8.66679 14.4998ZM11.3335 14.4998C11.5103 14.4998 11.6798 14.4296 11.8049 14.3046C11.9299 14.1796 12.0001 14.01 12.0001 13.8332V9.83317C12.0001 9.65636 11.9299 9.48679 11.8049 9.36177C11.6798 9.23674 11.5103 9.1665 11.3335 9.1665C11.1566 9.1665 10.9871 9.23674 10.8621 9.36177C10.737 9.48679 10.6668 9.65636 10.6668 9.83317V13.8332C10.6668 14.01 10.737 14.1796 10.8621 14.3046C10.9871 14.4296 11.1566 14.4998 11.3335 14.4998Z" fill="#374151"/>
</svg>
