<svg width="20" height="21" viewBox="0 0 20 21" fill="none" xmlns="http://www.w3.org/2000/svg">
<path d="M17.5917 2.90907C17.1158 2.43389 16.4707 2.16699 15.7982 2.16699C15.1257 2.16699 14.4806 2.43389 14.0047 2.90907L2.61943 14.2944C2.29339 14.6186 2.03487 15.0042 1.85884 15.429C1.68281 15.8537 1.59275 16.3092 1.59388 16.769V18.2061C1.59388 18.3918 1.66764 18.5698 1.79892 18.7011C1.9302 18.8324 2.10825 18.9062 2.29391 18.9062H3.73107C4.19083 18.9074 4.64627 18.8175 5.07104 18.6416C5.49581 18.4657 5.88146 18.2073 6.20568 17.8813L17.5917 6.49532C18.0666 6.01944 18.3334 5.37455 18.3334 4.70219C18.3334 4.02984 18.0666 3.38495 17.5917 2.90907ZM5.21584 16.8915C4.82102 17.2837 4.28757 17.5045 3.73107 17.5061H2.99394V16.769C2.99323 16.4931 3.04725 16.2198 3.15288 15.9649C3.2585 15.7101 3.41362 15.4787 3.60927 15.2842L12.2497 6.64373L13.8598 8.2538L5.21584 16.8915ZM16.6011 5.50548L14.8468 7.26045L13.2368 5.65388L14.9918 3.89891C15.2053 3.68587 15.4947 3.56636 15.7963 3.56669C16.0979 3.56702 16.387 3.68715 16.6001 3.90066C16.8131 4.11417 16.9326 4.40356 16.9323 4.70518C16.932 5.0068 16.8118 5.29593 16.5983 5.50898L16.6011 5.50548Z" fill="#374151"/>
</svg>
