<svg width="30" height="30" viewBox="0 0 30 30" fill="none" xmlns="http://www.w3.org/2000/svg">
<rect width="30" height="30" rx="6.92308" fill="#E4F2FD"/>
<path d="M12.8403 6.75205C12.8003 6.80259 12.7708 6.86057 12.7535 6.92261C12.7362 6.98465 12.7314 7.04952 12.7394 7.11344C12.7474 7.17736 12.768 7.23905 12.8 7.29492C12.8321 7.35079 12.875 7.39973 12.9261 7.43888L13.608 7.96136C12.3102 8.21811 11.1084 8.82834 10.1354 9.72476C9.16238 10.6212 8.45585 11.7689 8.09377 13.0414C8.07271 13.1036 8.06447 13.1694 8.06953 13.2348C8.0746 13.3002 8.09286 13.3639 8.12323 13.4221C8.1536 13.4803 8.19544 13.5317 8.24623 13.5732C8.29701 13.6148 8.35569 13.6456 8.41872 13.6638C8.48175 13.6821 8.54782 13.6874 8.61295 13.6794C8.67808 13.6714 8.74091 13.6503 8.79766 13.6173C8.8544 13.5844 8.90388 13.5403 8.94311 13.4877C8.98233 13.4351 9.0105 13.3751 9.02589 13.3113C9.33771 12.2129 9.94647 11.2219 10.7852 10.4472C11.6239 9.67251 12.6601 9.14423 13.7797 8.92047L13.2156 9.65145C13.1759 9.70229 13.1467 9.76052 13.1298 9.82275C13.1129 9.88498 13.1085 9.94996 13.1169 10.0139C13.1254 10.0778 13.1465 10.1394 13.179 10.1951C13.2115 10.2508 13.2548 10.2995 13.3063 10.3383C13.5197 10.5026 13.8288 10.4609 13.9931 10.2451L15.2515 8.60649C15.3296 8.50456 15.3641 8.37586 15.3476 8.24853C15.331 8.1212 15.2648 8.0056 15.1632 7.92702L13.5222 6.66129C13.2818 6.48958 12.9727 6.55827 12.8403 6.75205ZM16.3627 8.42988C16.3448 8.49156 16.3393 8.55619 16.3465 8.62002C16.3537 8.68385 16.3735 8.74562 16.4048 8.80174C16.436 8.85786 16.4781 8.90723 16.5286 8.94698C16.579 8.98672 16.6369 9.01607 16.6988 9.0333C17.7952 9.34528 18.7843 9.95368 19.5572 10.7915C20.3302 11.6294 20.857 12.6643 21.0798 13.7822L20.3488 13.2156C20.2979 13.1759 20.2397 13.1468 20.1775 13.1298C20.1152 13.1129 20.0503 13.1085 19.9863 13.117C19.9224 13.1254 19.8608 13.1465 19.8051 13.179C19.7494 13.2116 19.7007 13.2548 19.6619 13.3064C19.6224 13.3574 19.5934 13.4157 19.5767 13.478C19.5599 13.5404 19.5558 13.6054 19.5645 13.6693C19.5731 13.7333 19.5945 13.7949 19.6272 13.8505C19.6599 13.9061 19.7034 13.9546 19.7552 13.9932L21.3937 15.2516C21.6071 15.4135 21.9089 15.3742 22.0732 15.1608L23.334 13.5222C23.4131 13.4198 23.4482 13.2901 23.4316 13.1617C23.415 13.0334 23.3482 12.9169 23.2457 12.8378C23.1433 12.7588 23.0136 12.7237 22.8852 12.7403C22.7569 12.7568 22.6404 12.8237 22.5613 12.9262L22.0389 13.6081C21.7818 12.3107 21.1717 11.1095 20.2759 10.1366C19.38 9.16364 18.233 8.45679 16.9612 8.09382C16.8373 8.06044 16.7053 8.07692 16.5934 8.13974C16.4815 8.20256 16.3987 8.30672 16.3627 8.42988ZM8.28019 14.6481C8.21127 14.6527 8.14411 14.6719 8.0832 14.7045C8.02229 14.737 7.96903 14.7822 7.92697 14.837L6.66124 16.4756C6.58342 16.5778 6.54928 16.7067 6.56629 16.8341C6.5833 16.9614 6.65008 17.0768 6.752 17.1551C6.80254 17.195 6.86052 17.2245 6.92256 17.2418C6.9846 17.2591 7.04947 17.2639 7.11339 17.2559C7.17731 17.248 7.239 17.2273 7.29487 17.1953C7.35074 17.1632 7.39968 17.1204 7.43883 17.0692L7.96131 16.3897C8.21857 17.6874 8.82899 18.8888 9.72533 19.8618C10.6217 20.8347 11.7692 21.5414 13.0414 21.904C13.1031 21.9214 13.1676 21.9265 13.2312 21.9189C13.2949 21.9114 13.3564 21.8914 13.4123 21.8601C13.4683 21.8288 13.5175 21.7867 13.5571 21.7364C13.5968 21.6861 13.6262 21.6284 13.6436 21.5667C13.661 21.505 13.6661 21.4405 13.6585 21.3769C13.651 21.3132 13.631 21.2517 13.5997 21.1958C13.5684 21.1398 13.5263 21.0906 13.476 21.051C13.4257 21.0113 13.368 20.9819 13.3063 20.9645C12.2093 20.6535 11.2194 20.0458 10.4455 19.2084C9.67171 18.3709 9.14396 17.3361 8.92042 16.218L9.6514 16.7798C9.70197 16.8187 9.75973 16.8474 9.82137 16.864C9.88301 16.8807 9.94733 16.885 10.0107 16.8768C10.074 16.8686 10.1351 16.848 10.1904 16.8162C10.2458 16.7844 10.2943 16.742 10.3333 16.6915C10.3723 16.6409 10.4009 16.5831 10.4176 16.5215C10.4342 16.4598 10.4386 16.3955 10.4304 16.3322C10.4222 16.2689 10.4016 16.2078 10.3698 16.1524C10.338 16.0971 10.2956 16.0485 10.245 16.0095L8.60644 14.7487C8.5131 14.6777 8.39722 14.6404 8.28019 14.6481ZM20.9669 16.7013C20.6541 17.797 20.0453 18.7853 19.2076 19.5577C18.3698 20.3301 17.3354 20.8567 16.218 21.0798L16.7822 20.3488C16.8221 20.2983 16.8516 20.2403 16.8689 20.1783C16.8862 20.1162 16.891 20.0513 16.883 19.9874C16.8751 19.9235 16.8544 19.8618 16.8224 19.8059C16.7903 19.7501 16.7475 19.7011 16.6963 19.662C16.402 19.4584 16.1567 19.5737 16.0095 19.7552L14.7511 21.3938C14.6733 21.496 14.6391 21.6249 14.6562 21.7523C14.6732 21.8796 14.7399 21.995 14.8419 22.0733L16.4804 23.3341C16.5312 23.3731 16.5891 23.4017 16.6509 23.4182C16.7127 23.4348 16.7771 23.4391 16.8406 23.4308C16.904 23.4225 16.9652 23.4018 17.0206 23.3698C17.076 23.3378 17.1246 23.2953 17.1636 23.2445C17.2026 23.1938 17.2312 23.1359 17.2478 23.0741C17.2644 23.0123 17.2686 22.9479 17.2603 22.8844C17.252 22.821 17.2313 22.7598 17.1993 22.7044C17.1674 22.649 17.1248 22.6004 17.0741 22.5614L16.3946 22.0389C17.6899 21.7818 18.8892 21.1729 19.8611 20.2789C20.833 19.3849 21.5398 18.2404 21.9039 16.9711C21.9219 16.9094 21.9274 16.8448 21.9202 16.7809C21.9129 16.7171 21.8931 16.6553 21.8619 16.5992C21.8306 16.5431 21.7885 16.4937 21.7381 16.454C21.6876 16.4142 21.6298 16.3849 21.5679 16.3677C21.5065 16.3494 21.4421 16.3437 21.3785 16.3508C21.3149 16.358 21.2534 16.3778 21.1976 16.4091C21.1418 16.4405 21.0928 16.4827 21.0536 16.5333C21.0144 16.5839 20.9858 16.6418 20.9694 16.7037L20.9669 16.7013Z" fill="#3C6BD3"/>
</svg>
