<svg width="30" height="30" viewBox="0 0 30 30" fill="none" xmlns="http://www.w3.org/2000/svg">
<rect width="30" height="30" rx="6.92308" fill="#E4F2FD"/>
<path d="M15.662 14.7405C16.1638 14.347 16.5696 13.8445 16.8484 13.271C17.1273 12.6975 17.272 12.0681 17.2716 11.4304C17.2716 9.10686 15.3765 7.21167 13.0529 7.21167C10.7293 7.21167 8.83414 9.10686 8.83414 11.4304C8.83414 12.7739 9.46371 13.9682 10.4438 14.7405C8.54857 15.5129 7.21155 17.3756 7.21155 19.5434V22.1396C7.21155 22.4965 7.50362 22.7886 7.86059 22.7886C8.21756 22.7886 8.50962 22.4965 8.50962 22.1396V19.5434C8.50962 17.3951 10.2555 15.6492 12.4039 15.6492H13.7019C15.8503 15.6492 17.5962 17.3951 17.5962 19.5434V22.1396C17.5962 22.4965 17.8882 22.7886 18.2452 22.7886C18.6022 22.7886 18.8942 22.4965 18.8942 22.1396V19.5434C18.8942 17.3756 17.5572 15.5129 15.662 14.7405ZM13.0529 8.50975C14.6625 8.50975 15.9736 9.8208 15.9736 11.4304C15.9736 13.04 14.6625 14.3511 13.0529 14.3511C11.4433 14.3511 10.1322 13.04 10.1322 11.4304C10.1322 9.8208 11.4433 8.50975 13.0529 8.50975ZM22.1394 14.3511H21.4904V13.7021C21.4904 13.3451 21.1983 13.053 20.8414 13.053C20.4844 13.053 20.1923 13.3451 20.1923 13.7021V14.3511H19.5433C19.1863 14.3511 18.8942 14.6432 18.8942 15.0001C18.8942 15.3571 19.1863 15.6492 19.5433 15.6492H20.1923V16.2982C20.1923 16.6552 20.4844 16.9472 20.8414 16.9472C21.1983 16.9472 21.4904 16.6552 21.4904 16.2982V15.6492H22.1394C22.4964 15.6492 22.7885 15.3571 22.7885 15.0001C22.7885 14.6432 22.4964 14.3511 22.1394 14.3511Z" fill="#3C6BD3"/>
</svg>
