<svg width="30" height="30" viewBox="0 0 30 30" fill="none" xmlns="http://www.w3.org/2000/svg">
<rect width="30" height="30" rx="6.92308" fill="#E4F2FD"/>
<path d="M17.6734 13.3464L16.0197 15L17.6734 16.6536C17.8086 16.7889 17.8845 16.9723 17.8845 17.1635C17.8845 17.3547 17.8086 17.5381 17.6734 17.6734C17.5381 17.8086 17.3547 17.8845 17.1635 17.8845C16.9723 17.8845 16.7889 17.8086 16.6536 17.6734L15 16.0197L13.3464 17.6734C13.2796 17.7406 13.2002 17.7939 13.1127 17.8303C13.0252 17.8667 12.9313 17.8854 12.8366 17.8854C12.7418 17.8854 12.648 17.8667 12.5605 17.8303C12.473 17.7939 12.3935 17.7406 12.3267 17.6734C12.2597 17.6064 12.2065 17.527 12.1702 17.4395C12.134 17.352 12.1153 17.2582 12.1153 17.1635C12.1153 17.0688 12.134 16.975 12.1702 16.8875C12.2065 16.8 12.2597 16.7206 12.3267 16.6536L13.9803 15L12.3267 13.3464C12.1915 13.2112 12.1155 13.0278 12.1155 12.8366C12.1155 12.6453 12.1915 12.4619 12.3267 12.3267C12.4619 12.1915 12.6453 12.1155 12.8366 12.1155C13.0278 12.1155 13.2112 12.1915 13.3464 12.3267L15 13.9803L16.6536 12.3267C16.7889 12.1915 16.9723 12.1155 17.1635 12.1155C17.3547 12.1155 17.5381 12.1915 17.6734 12.3267C17.8086 12.4619 17.8845 12.6453 17.8845 12.8366C17.8845 13.0278 17.8086 13.2112 17.6734 13.3464ZM23.6539 15C23.6539 19.7719 19.7719 23.6539 15 23.6539C10.2282 23.6539 6.34619 19.7719 6.34619 15C6.34619 10.2282 10.2282 6.34619 15 6.34619C19.7719 6.34619 23.6539 10.2282 23.6539 15ZM22.2116 15C22.2116 11.0236 18.9765 7.7885 15 7.7885C11.0236 7.7885 7.7885 11.0236 7.7885 15C7.7885 18.9765 11.0236 22.2116 15 22.2116C18.9765 22.2116 22.2116 18.9765 22.2116 15Z" fill="#3C6BD3"/>
</svg>
