<svg width="30" height="30" viewBox="0 0 30 30" fill="none" xmlns="http://www.w3.org/2000/svg">
<rect width="30" height="30" rx="6.92308" fill="#E4F2FD"/>
<path d="M7.924 11.7425C8.11329 11.3313 8.3383 10.9376 8.59644 10.5658C8.64506 10.4957 8.70701 10.436 8.77873 10.3899C8.85045 10.3438 8.93055 10.3123 9.01445 10.2972C9.09835 10.282 9.1844 10.2836 9.2677 10.3017C9.351 10.3199 9.42992 10.3542 9.49994 10.4028C9.56996 10.4515 9.62972 10.5134 9.6758 10.5851C9.72189 10.6569 9.75339 10.737 9.76852 10.8209C9.78365 10.9047 9.7821 10.9908 9.76397 11.0741C9.74584 11.1574 9.71148 11.2363 9.66286 11.3063C9.44866 11.616 9.26043 11.945 9.10336 12.2858C9.06933 12.3656 9.01963 12.4378 8.9572 12.4981C8.89477 12.5584 8.82088 12.6056 8.7399 12.6368C8.65893 12.6681 8.57251 12.6828 8.48576 12.68C8.39901 12.6773 8.31369 12.6572 8.23485 12.6209C8.15601 12.5846 8.08525 12.5328 8.02675 12.4687C7.96826 12.4046 7.92322 12.3294 7.8943 12.2476C7.86537 12.1657 7.85316 12.0789 7.85837 11.9923C7.86359 11.9057 7.88612 11.8209 7.92465 11.7432L7.924 11.7425ZM10.8708 9.82387C11.0006 9.82387 11.1317 9.78493 11.2459 9.70379C11.5533 9.48557 11.8791 9.29446 12.2195 9.13261C12.2973 9.09656 12.3672 9.04546 12.4251 8.98226C12.483 8.91907 12.5278 8.84504 12.5569 8.76443C12.5861 8.68382 12.5989 8.59824 12.5948 8.51263C12.5907 8.42702 12.5697 8.34307 12.533 8.26562C12.4962 8.18818 12.4445 8.11878 12.3808 8.06142C12.3171 8.00407 12.2427 7.9599 12.1619 7.93146C12.081 7.90302 11.9953 7.89088 11.9097 7.89573C11.8242 7.90059 11.7404 7.92234 11.6633 7.95974C11.2557 8.15317 10.863 8.38358 10.4943 8.64516C10.3818 8.72484 10.2976 8.83826 10.2539 8.96899C10.2102 9.09972 10.2093 9.24097 10.2512 9.37228C10.2931 9.50358 10.3758 9.61813 10.4872 9.69932C10.5986 9.78052 10.7329 9.82414 10.8708 9.82387ZM9.12608 17.7639C9.09088 17.6852 9.04033 17.6142 8.9774 17.5552C8.91447 17.4963 8.84041 17.4504 8.75955 17.4204C8.67869 17.3903 8.59265 17.3767 8.50647 17.3803C8.42029 17.3839 8.33568 17.4046 8.2576 17.4413C8.17953 17.478 8.10954 17.5298 8.05174 17.5938C7.99393 17.6579 7.94947 17.7328 7.92095 17.8142C7.89243 17.8956 7.88042 17.9819 7.88562 18.068C7.89083 18.1541 7.91314 18.2383 7.95126 18.3156C8.14209 18.7226 8.37121 19.1166 8.63408 19.4879C8.68232 19.5598 8.74446 19.6214 8.81686 19.6689C8.88926 19.7165 8.97044 19.7491 9.05562 19.7647C9.14081 19.7804 9.22827 19.7789 9.31286 19.7603C9.39745 19.7416 9.47745 19.7063 9.54815 19.6562C9.61885 19.6062 9.67882 19.5425 9.72453 19.4689C9.77024 19.3953 9.80076 19.3134 9.81429 19.2278C9.82782 19.1423 9.8241 19.0549 9.80333 18.9708C9.78256 18.8867 9.74517 18.8076 9.69336 18.7382C9.47599 18.4308 9.28616 18.1047 9.12608 17.7639ZM8.53607 15.5915C8.50104 15.2161 8.49952 14.8384 8.53153 14.4628C8.53882 14.3778 8.52929 14.2923 8.50346 14.2111C8.47764 14.1299 8.43604 14.0545 8.38105 13.9894C8.32606 13.9243 8.25876 13.8707 8.183 13.8316C8.10724 13.7925 8.02452 13.7688 7.93958 13.7618C7.59038 13.7254 7.26909 13.9967 7.23858 14.3537C7.20091 14.8054 7.20243 15.2595 7.24313 15.7109C7.258 15.872 7.33246 16.0216 7.45192 16.1307C7.57138 16.2397 7.72723 16.3002 7.88895 16.3003C7.90842 16.3003 7.92919 16.3003 7.94931 16.2977C8.03422 16.2899 8.11675 16.2654 8.19219 16.2257C8.26763 16.1859 8.33451 16.1317 8.389 16.0662C8.44349 16.0006 8.48452 15.9249 8.50976 15.8435C8.53499 15.762 8.54394 15.6764 8.53607 15.5915ZM14.3511 8.53871C14.3699 8.53871 14.8009 8.5095 15.0002 8.5095C15.1994 8.5095 15.6304 8.53871 15.6492 8.53871C15.8163 8.53849 15.9768 8.47387 16.0974 8.3583C16.218 8.24273 16.2894 8.08511 16.2968 7.91823C16.3042 7.75135 16.2469 7.58806 16.1369 7.46232C16.0269 7.33659 15.8727 7.25809 15.7063 7.24317C15.2365 7.20117 14.7638 7.20117 14.294 7.24317C14.1276 7.25809 13.9734 7.33659 13.8634 7.46232C13.7534 7.58806 13.6962 7.75135 13.7035 7.91823C13.7109 8.08511 13.7823 8.24273 13.9029 8.3583C14.0235 8.47387 14.184 8.53849 14.3511 8.53871ZM17.7645 9.12612C18.1055 9.28663 18.4317 9.47667 18.7394 9.69406C18.8089 9.74344 18.8875 9.77861 18.9706 9.79754C19.0537 9.81647 19.1397 9.8188 19.2238 9.80439C19.3078 9.78997 19.3881 9.7591 19.4602 9.71354C19.5322 9.66799 19.5946 9.60865 19.6436 9.53893C19.6928 9.46934 19.7279 9.39073 19.7467 9.30759C19.7656 9.22445 19.7679 9.13842 19.7535 9.0544C19.739 8.97037 19.7082 8.89001 19.6628 8.8179C19.6173 8.74579 19.5581 8.68335 19.4885 8.63413C19.1187 8.3725 18.7266 8.1438 18.3169 7.95066C18.1623 7.88505 17.9883 7.88188 17.8313 7.94181C17.6744 8.00173 17.5468 8.12009 17.4753 8.27206C17.4038 8.42403 17.3939 8.5978 17.4477 8.75691C17.5015 8.91602 17.6148 9.04811 17.7639 9.12547L17.7645 9.12612ZM18.7239 20.3174C18.4156 20.5335 18.0871 20.7237 17.7464 20.8834C17.6116 20.9452 17.5022 21.0514 17.4363 21.1842C17.3704 21.317 17.352 21.4684 17.3843 21.6131C17.4166 21.7578 17.4976 21.8871 17.6137 21.9793C17.7298 22.0715 17.874 22.1211 18.0222 22.1198C18.1144 22.1198 18.2079 22.1004 18.2968 22.0582C18.7057 21.8674 19.0997 21.6389 19.4696 21.3793C19.5397 21.3304 19.5994 21.2682 19.6453 21.1962C19.6913 21.1242 19.7225 21.0439 19.7374 20.9598C19.7522 20.8757 19.7504 20.7896 19.7318 20.7062C19.7133 20.6228 19.6785 20.544 19.6295 20.4741C19.5804 20.4042 19.5181 20.3447 19.446 20.2989C19.3739 20.2532 19.2935 20.2221 19.2093 20.2075C19.1252 20.1929 19.039 20.195 18.9557 20.2137C18.8724 20.2325 18.7936 20.2681 18.7239 20.3174ZM21.7459 17.4355C21.6688 17.3992 21.5853 17.3786 21.5002 17.3746C21.415 17.3707 21.33 17.3836 21.2498 17.4126C21.1697 17.4416 21.0961 17.4861 21.0332 17.5436C20.9703 17.6011 20.9194 17.6705 20.8833 17.7477C20.723 18.0892 20.5337 18.4162 20.3173 18.7252C20.2243 18.8662 20.1898 19.0379 20.2213 19.2038C20.2528 19.3698 20.3477 19.5169 20.4859 19.614C20.6242 19.7111 20.7948 19.7504 20.9616 19.7237C21.1284 19.697 21.2782 19.6064 21.3792 19.471C21.6392 19.1005 21.8664 18.7081 22.0581 18.2981C22.0943 18.221 22.1149 18.1375 22.1188 18.0524C22.1227 17.9673 22.1098 17.8822 22.0808 17.8021C22.0518 17.722 22.0073 17.6484 21.9498 17.5855C21.8924 17.5226 21.8231 17.4716 21.7459 17.4355ZM22.0594 13.7436C21.888 13.7583 21.7294 13.8405 21.6185 13.972C21.5077 14.1036 21.4536 14.2738 21.4681 14.4452C21.4831 14.627 21.4915 14.8113 21.4909 15.0002C21.4909 15.1949 21.4818 15.3877 21.4662 15.5772C21.4589 15.6621 21.4685 15.7476 21.4943 15.8288C21.5201 15.91 21.5616 15.9854 21.6165 16.0505C21.6714 16.1157 21.7386 16.1694 21.8143 16.2085C21.89 16.2477 21.9726 16.2716 22.0575 16.2789C22.1424 16.2861 22.2279 16.2766 22.3091 16.2508C22.3903 16.225 22.4656 16.1834 22.5308 16.1285C22.5959 16.0736 22.6496 16.0064 22.6888 15.9308C22.728 15.8551 22.7519 15.7725 22.7591 15.6876C22.7979 15.2375 22.7986 14.785 22.7611 14.3349C22.7551 14.2495 22.732 14.1663 22.6932 14.09C22.6544 14.0137 22.6007 13.946 22.5353 13.8909C22.4699 13.8357 22.3941 13.7943 22.3123 13.769C22.2306 13.7437 22.1446 13.735 22.0594 13.7436ZM12.2689 20.8899C11.9268 20.7309 11.5991 20.5426 11.2894 20.3271C11.2195 20.2771 11.1404 20.2414 11.0567 20.2222C10.9729 20.203 10.8861 20.2006 10.8014 20.2152C10.7167 20.2298 10.6358 20.2611 10.5633 20.3072C10.4907 20.3533 10.4281 20.4134 10.379 20.4839C10.3299 20.5544 10.2952 20.634 10.2771 20.718C10.259 20.802 10.2577 20.8888 10.2734 20.9733C10.2891 21.0578 10.3214 21.1383 10.3685 21.2103C10.4155 21.2822 10.4764 21.344 10.5475 21.3922C10.9188 21.6512 11.3147 21.879 11.7224 22.0679C11.7998 22.1049 11.8838 22.1261 11.9695 22.1303C12.0552 22.1346 12.1409 22.1218 12.2217 22.0928C12.3024 22.0637 12.3766 22.0189 12.4399 21.961C12.5032 21.9031 12.5544 21.8332 12.5905 21.7553C12.6267 21.6775 12.647 21.5933 12.6504 21.5075C12.6537 21.4218 12.6401 21.3362 12.6101 21.2558C12.5802 21.1754 12.5347 21.1017 12.4761 21.039C12.4175 20.9763 12.3471 20.9258 12.2689 20.8905V20.8899ZM22.606 10.005C22.4861 9.88145 22.322 9.81063 22.1499 9.80808C21.9778 9.80552 21.8117 9.87144 21.6882 9.99133L15.4876 16.0134C15.3065 16.1928 15.0625 16.2945 14.8076 16.2968C14.5527 16.2991 14.3069 16.2018 14.1226 16.0257L11.5309 13.5203C11.407 13.4018 11.2412 13.3372 11.0698 13.3405C10.8983 13.3438 10.7352 13.4148 10.6159 13.538C10.4967 13.6612 10.431 13.8266 10.4333 13.998C10.4356 14.1695 10.5056 14.333 10.628 14.453L13.2198 16.9584C13.6443 17.3675 14.2113 17.5954 14.8009 17.5939C15.3825 17.5939 15.9627 17.3745 16.3983 16.9383L22.5917 10.9227C22.7152 10.8028 22.786 10.6388 22.7886 10.4667C22.7911 10.2946 22.7252 10.1285 22.6053 10.005H22.606ZM15.5739 21.4662C15.3894 21.4823 15.2042 21.4906 15.019 21.4909C14.8197 21.4863 14.6321 21.4831 14.4426 21.4675C14.2711 21.4539 14.1011 21.5087 13.9699 21.62C13.8387 21.7313 13.7568 21.89 13.7423 22.0614C13.7283 22.233 13.7829 22.4032 13.8943 22.5345C14.0056 22.6658 14.1646 22.7475 14.3362 22.7618C14.562 22.7799 14.7691 22.7845 15.0209 22.789C15.2455 22.789 15.4681 22.7786 15.6882 22.7592C15.774 22.7529 15.8578 22.7297 15.9346 22.6907C16.0113 22.6518 16.0796 22.598 16.1354 22.5324C16.1912 22.4669 16.2334 22.3909 16.2595 22.3089C16.2856 22.2268 16.2952 22.1404 16.2876 22.0547C16.28 21.9689 16.2555 21.8856 16.2154 21.8094C16.1753 21.7332 16.1204 21.6658 16.054 21.611C15.9876 21.5563 15.9109 21.5153 15.8285 21.4904C15.7461 21.4655 15.6596 21.4573 15.5739 21.4662Z" fill="#3C6BD3"/>
</svg>
